<?xml version="1.0" encoding="utf-8"?><svg xmlns="http://www.w3.org/2000/svg" xmlns:xlink="http://www.w3.org/1999/xlink"><symbol viewBox="0 0 512 512" id="filter-contrast" xmlns="http://www.w3.org/2000/svg"><path d="M256 0C114.848 0 0 114.848 0 256s114.848 256 256 256 256-114.848 256-256S397.152 0 256 0zm0 480C132.48 480 32 379.52 32 256S132.48 32 256 32s224 100.48 224 224-100.48 224-224 224z"/><path d="M256 64v384c112 0 192-85.968 192-192 0-106.048-80-192-192-192z"/></symbol><symbol viewBox="0 0 469.333 469.333" id="filter-crop" xmlns="http://www.w3.org/2000/svg"><path d="M341.333 298.667H384V128c0-23.573-19.093-42.667-42.667-42.667H170.667V128h170.667v170.667z"/><path d="M128 341.333V0H85.333v85.333H0V128h85.333v213.333C85.333 364.907 104.427 384 128 384h213.333v85.333H384V384h85.333v-42.667H128z"/></symbol><symbol viewBox="0 0 48 43" id="filter-fill" xmlns="http://www.w3.org/2000/svg"><path d="M14 1.5c-1.1 1.3-1 1.9.8 3.8L17 7.6 11.5 13c-3 3-5.5 6.1-5.5 7 0 2 12.1 14 14.1 14C22 34 34 21.9 34 20c0-.9-4.2-5.7-9.3-10.8C16.4 1 15.2.1 14 1.5zm11 14l4.4 4.5H10.6l4.4-4.5c2.4-2.5 4.7-4.5 5-4.5.3 0 2.6 2 5 4.5zm10.4 11c-1.9 2.9-1.6 5.4.9 6.9 2 1.3 5-.2 5.5-2.8.4-1.9-2.3-6.6-3.8-6.6-.5 0-1.7 1.1-2.6 2.5zM0 41.5C0 42.8 3.3 43 24 43s24-.2 24-1.5S44.7 40 24 40s-24 .2-24 1.5z"/></symbol></svg>